<svg version="1.1" id="Layer_1" xmlns="http://www.w3.org/2000/svg" xmlns:xlink="http://www.w3.org/1999/xlink" x="0px" y="0px"
	 width="100%" viewBox="0 0 1024 672" enable-background="new 0 0 1024 672" xml:space="preserve">
<path fill="#000000" opacity="1.000000" stroke="none" 
	d="
M287.876099,345.124146 
	C281.482513,335.442108 280.991669,325.508942 285.208801,315.319366 
	C287.520782,309.733154 291.888611,306.744690 298.077789,306.719818 
	C299.244293,306.715149 300.460388,306.482391 301.569611,306.730438 
	C312.114075,309.088837 319.625916,303.776642 326.709534,297.085754 
	C328.240479,295.639648 328.727966,294.098053 328.585205,292.210754 
	C328.079865,285.531097 330.541351,280.185760 335.855743,276.127869 
	C335.328827,273.879669 333.319702,273.467987 331.824890,272.647339 
	C295.077637,252.473480 292.833893,200.831039 326.192078,175.505112 
	C341.232513,164.086258 358.192291,161.330185 376.338928,166.580948 
	C386.613281,169.553848 396.633942,173.158630 405.124023,180.008484 
	C406.020508,180.731781 406.966034,181.460342 408.446136,181.340271 
	C410.630280,179.098938 411.313477,175.909729 412.723999,173.139160 
	C427.187347,144.729568 460.204590,131.686752 490.008148,143.137634 
	C501.305054,147.478073 512.658020,151.897644 521.606445,160.792252 
	C546.914124,185.947647 545.433655,227.905273 518.153503,252.700165 
	C516.809753,253.921539 515.450134,255.125473 513.751282,256.648193 
	C518.425781,259.370026 523.473694,259.375946 528.157959,260.562408 
	C532.671326,261.705566 537.305237,262.368958 541.827820,263.480682 
	C548.466248,265.112518 552.621033,270.064636 553.377380,276.884888 
	C554.180237,284.124481 554.217224,283.489441 561.130920,283.892975 
	C571.838013,284.517883 581.264465,280.079498 591.153564,277.514130 
	C599.992371,275.221191 608.738342,273.675385 617.633484,276.802765 
	C622.394104,278.476501 626.659790,280.949249 629.742432,285.609222 
	C624.945740,288.099609 625.355774,291.560150 626.514954,296.158630 
	C628.857422,305.450958 632.104614,314.622009 631.410339,324.548798 
	C630.904846,331.776642 628.791077,338.600677 626.713867,345.352905 
	C625.257507,350.086792 621.831116,354.261780 630.581116,355.414581 
	C624.770813,364.004547 617.424316,367.606232 608.292725,368.276764 
	C597.976135,369.034302 588.786194,364.577423 579.109375,362.328522 
	C571.399231,360.536682 563.580505,362.434753 555.807617,362.374146 
	C553.980103,362.359863 553.414795,363.935577 553.401184,365.590759 
	C553.379150,368.256866 553.391357,370.923187 553.378113,373.589386 
	C553.325745,384.115601 548.133972,389.544373 537.629700,390.160950 
	C522.006836,391.077911 506.388245,392.069061 490.763550,392.953430 
	C488.137573,393.102051 486.467102,393.563751 486.245850,396.820557 
	C485.385895,409.480072 483.557556,411.314240 469.787567,413.718781 
	C484.574219,446.746338 499.279083,479.591187 514.116577,512.732361 
	C508.260406,515.433716 502.452667,516.593506 496.429413,516.466736 
	C493.006744,516.394775 491.887177,513.415344 490.703522,510.861786 
	C482.297913,492.728241 473.953033,474.566528 465.565369,456.424652 
	C461.371674,447.353943 457.131531,438.304657 452.905060,429.249146 
	C452.214935,427.770416 451.786438,426.119690 450.239838,425.028259 
	C448.789642,426.589355 449.383667,428.478058 449.380371,430.174347 
	C449.336609,452.671600 449.304993,475.169128 449.396790,497.666107 
	C449.412933,501.620026 448.911682,504.941132 444.705322,506.599762 
	C440.736511,508.164764 433.920837,507.287537 431.427948,504.758453 
	C429.438904,502.740509 429.703033,500.185669 429.700989,497.700562 
	C429.682861,475.536316 429.693237,453.372040 429.633850,431.207947 
	C429.628693,429.290375 430.239258,427.205383 428.803284,425.443298 
	C426.853363,425.354706 426.888702,427.042114 426.394867,428.113068 
	C413.980896,455.033813 401.619812,481.978973 389.198425,508.896301 
	C385.401917,517.123352 383.806946,517.867554 374.791595,515.781006 
	C371.761505,515.079712 368.522247,514.930542 365.071136,512.488403 
	C379.529358,479.799957 394.022064,447.033600 408.356415,414.625244 
	C407.216034,413.052032 406.144104,413.247101 405.185425,413.107697 
	C396.720673,411.876617 392.844269,407.560364 392.668213,399.166534 
	C392.504486,391.360931 392.499268,391.509949 384.693756,391.238190 
	C370.713806,390.751373 356.729736,390.246979 342.769043,389.394775 
	C334.401154,388.883972 327.703064,382.398590 328.869232,374.272125 
	C330.466431,363.141663 325.182831,356.587128 317.222748,350.721863 
	C315.632202,349.549896 314.099731,349.009888 312.182129,349.051697 
	C307.850891,349.146118 303.514801,349.051117 299.185455,349.185760 
	C294.990875,349.316132 291.296997,348.185791 287.876099,345.124146 
M506.668915,264.057098 
	C502.024200,262.514221 497.287750,261.832520 492.393951,262.444733 
	C479.018982,264.117981 465.631958,265.698181 452.266724,267.445587 
	C416.956909,272.062073 381.656219,276.748413 346.351593,281.404663 
	C338.551300,282.433441 336.034698,285.267212 336.147858,293.312622 
	C336.290710,303.466858 337.467133,313.695221 336.602478,323.754486 
	C335.255432,339.425781 336.122925,355.031097 336.245819,370.661438 
	C336.308716,378.661774 339.284882,381.487579 347.171509,381.780060 
	C365.142670,382.446533 383.112183,383.250000 401.090149,383.617920 
	C430.731720,384.224518 460.369568,385.021667 490.027283,384.879883 
	C503.894531,384.813568 517.609253,383.436768 531.344238,381.958191 
	C534.866760,381.578949 537.913696,380.160217 540.517883,377.581390 
	C538.671326,375.503601 536.579468,376.433075 534.715088,376.538879 
	C527.240662,376.963104 519.779907,377.665161 512.302185,377.982849 
	C504.543335,378.312561 501.422180,375.286102 500.899139,367.430756 
	C500.821716,366.268524 500.831787,365.099365 500.830536,363.933350 
	C500.802124,337.776306 500.790344,311.619263 500.737000,285.462280 
	C500.730286,282.163788 500.768890,278.939209 499.680511,275.628448 
	C498.155243,270.988861 501.682983,267.420074 506.520721,268.242920 
	C516.522461,269.944092 526.505066,271.757904 536.501892,273.488617 
	C538.643005,273.859314 540.811157,274.073639 542.966919,274.359985 
	C543.081909,273.714996 543.196960,273.069977 543.312012,272.424957 
	C531.789978,268.113800 519.407837,267.064301 506.668915,264.057098 
M434.463379,246.114075 
	C440.095337,249.671173 446.466187,252.057098 452.879333,251.443069 
	C462.903809,250.483276 472.749878,247.806473 482.945801,247.935898 
	C484.360260,247.953857 485.870941,247.273895 487.193359,246.624466 
	C504.907135,237.925446 517.220947,211.757111 513.295410,192.382996 
	C512.135193,186.656998 507.865082,182.865921 506.397614,177.143997 
	C500.451080,153.957092 476.358856,144.959625 459.100739,147.923370 
	C439.158417,151.348068 425.637024,162.747391 417.764343,181.001892 
	C407.685486,204.371979 414.580505,231.568268 434.463379,246.114075 
M379.042114,262.650055 
	C394.876770,250.417587 408.753845,219.223877 400.771790,213.761383 
	C399.420502,214.191635 400.610291,216.158981 398.731537,216.606445 
	C397.810333,211.792282 396.996216,206.959808 395.951050,202.177841 
	C391.924377,183.754654 376.096466,171.374771 357.253143,172.122528 
	C337.682220,172.899185 324.423828,183.177185 315.648407,200.167496 
	C299.961884,230.538651 320.197174,266.460938 348.549713,269.362610 
	C359.250153,270.457733 368.799011,266.765411 379.042114,262.650055 
M606.652893,294.103394 
	C592.872253,305.072266 594.393066,333.788910 603.525696,345.642426 
	C608.460876,352.047974 613.607971,351.693573 618.419373,345.131226 
	C627.351624,332.948486 625.673706,319.490051 622.974426,305.961395 
	C622.097229,301.565002 619.438416,298.083618 616.171143,295.190002 
	C613.624207,292.934326 610.716980,291.158051 606.652893,294.103394 
M515.791504,337.618134 
	C518.060364,342.805359 520.375916,347.956238 524.753357,351.820618 
	C530.271301,356.691833 538.659851,358.356506 544.002686,355.512665 
	C542.714478,352.140839 539.453003,350.341125 537.560486,347.432098 
	C529.088928,334.409973 529.050293,320.552277 533.236755,306.251068 
	C534.227600,302.866028 535.675842,299.501129 529.206055,298.811615 
	C531.747131,297.479645 533.234192,296.766541 534.653687,295.937775 
	C536.122314,295.080353 537.874817,294.486816 538.699219,292.569031 
	C528.957764,291.516632 523.328430,294.326691 518.974060,302.285370 
	C512.935608,313.322021 511.432800,324.828247 515.791504,337.618134 
M556.422485,333.797333 
	C554.304077,325.240448 554.085876,316.695129 556.565063,308.162750 
	C557.603333,304.589539 559.342957,300.905487 554.263672,298.203918 
	C556.418762,297.125763 557.932312,296.474091 559.335571,295.637451 
	C560.797302,294.765930 562.931946,294.511200 563.022156,292.148865 
	C555.899841,290.148468 549.313660,293.143768 544.583496,300.414093 
	C534.840942,315.388458 535.719360,330.499542 543.962769,345.707581 
	C545.709290,348.929810 548.493530,350.992554 551.835571,352.312897 
	C554.868591,353.511078 557.222900,352.386108 559.466309,350.212280 
	C561.788147,347.962372 561.036865,345.930603 559.903381,343.480530 
	C558.583557,340.627411 557.708252,337.568665 556.422485,333.797333 
M467.252167,404.929810 
	C469.660370,404.424530 473.741119,404.838867 471.645569,400.671173 
	C469.336578,396.079041 465.953827,392.189423 459.874878,392.082367 
	C448.257629,391.877716 436.646362,391.354309 425.029938,391.074768 
	C418.912994,390.927551 412.540466,390.347107 409.125122,397.292908 
	C408.860809,397.830444 408.161987,398.204102 407.595245,398.533813 
	C405.917145,399.510193 403.545990,400.088715 404.536011,402.801666 
	C405.410980,405.199402 407.748444,404.837097 409.671204,404.905518 
	C416.142059,405.135681 422.616241,405.358185 429.090240,405.398163 
	C441.533844,405.474945 453.987701,406.304260 467.252167,404.929810 
M593.855835,296.427399 
	C595.578369,291.752960 599.220093,288.311707 601.669128,284.122650 
	C591.406189,290.456726 589.174377,301.410156 586.454895,312.154999 
	C584.083435,310.651611 585.631348,307.188721 582.535400,306.913116 
	C581.364075,307.614044 581.320374,308.832214 581.101929,309.959747 
	C579.594360,317.739380 579.902466,325.499084 581.147522,333.289429 
	C581.757507,337.106384 581.875671,342.276886 585.137939,343.486969 
	C588.399719,344.696869 591.611572,346.630371 595.015930,347.764801 
	C596.590820,344.338196 594.794739,342.019073 594.023010,339.577728 
	C589.560913,325.461365 589.054443,311.311401 593.855835,296.427399 
M573.757751,310.524292 
	C575.243591,305.420746 574.291565,300.496826 572.783691,295.668793 
	C571.688660,295.258453 571.028931,295.851868 570.506226,296.472107 
	C561.860474,306.731842 560.355652,318.504456 563.235535,331.180359 
	C564.045654,334.746063 566.218628,335.156494 569.216125,333.712860 
	C571.922302,332.409546 573.123108,330.402649 572.942871,327.330994 
	C572.630615,322.009216 572.841125,316.688812 573.757751,310.524292 
M309.154175,314.163300 
	C306.499390,314.162506 303.844543,314.170013 301.189789,314.159363 
	C292.903595,314.126160 286.677612,324.652710 290.608398,332.012390 
	C291.344543,333.390747 292.549805,333.620514 293.912292,333.836884 
	C297.990631,334.484650 301.267273,333.250519 303.357880,329.680725 
	C305.319672,330.591064 305.998047,333.208313 308.225464,332.368408 
	C310.556519,331.489410 309.549103,329.218781 309.644928,327.551758 
	C309.816864,324.560059 309.956116,321.596436 310.538055,318.631226 
	C310.811249,317.239258 312.057220,315.354309 309.154175,314.163300 
M412.475311,264.338104 
	C422.450989,264.954224 431.968536,262.321533 441.805511,260.309082 
	C434.816101,256.562042 428.548279,252.177505 422.606628,246.383774 
	C419.768555,253.269745 415.252991,258.041840 412.475311,264.338104 
M328.013947,324.398102 
	C327.498352,319.146576 329.459778,313.508301 325.931152,308.586060 
	C316.790924,313.644989 314.383759,330.149200 321.588562,336.115906 
	C326.411224,334.124298 328.927277,330.759705 328.013947,324.398102 
M514.115356,362.320679 
	C515.002686,363.040985 515.848022,364.321259 516.784241,364.391510 
	C523.337585,364.883331 529.767151,367.001038 536.416321,366.041565 
	C537.542297,365.879028 539.154297,366.037872 539.694031,363.240082 
	C527.863403,365.790619 520.793640,357.267151 511.988586,350.546814 
	C511.806580,355.395538 512.809570,358.512756 514.115356,362.320679 
M521.277954,188.965057 
	C521.603027,192.096985 521.906799,195.231323 522.259277,198.360168 
	C522.604736,201.427185 524.864319,201.956482 527.328796,201.908051 
	C530.078552,201.854019 530.975464,200.029892 530.987671,197.559189 
	C531.003601,194.338837 530.119629,191.311661 528.804077,188.432343 
	C527.710999,186.040039 525.146912,185.580765 523.010864,185.191467 
	C521.390869,184.896194 521.365784,186.867767 521.277954,188.965057 
M411.036163,244.139832 
	C414.342468,245.107437 416.182434,242.947556 416.206451,240.436829 
	C416.235657,237.386032 414.004608,234.787994 411.167358,233.593262 
	C408.384888,232.421600 407.569092,235.079971 406.596924,236.965576 
	C404.464813,241.100906 406.233917,243.173248 411.036163,244.139832 
M473.392151,443.283264 
	C471.356079,434.900543 467.937103,427.211731 462.358673,420.601562 
	C464.322174,428.872406 468.894745,435.866394 473.392151,443.283264 
M408.832550,433.280945 
	C407.347504,436.901947 405.862457,440.522919 404.377411,444.143921 
	C408.795166,436.974182 413.548309,430.002869 415.606720,421.704987 
	C414.778137,421.889404 414.176086,422.229950 413.918976,422.743286 
	C412.285706,426.003876 410.728577,429.302582 408.832550,433.280945 
z"/>
<path fill="#000000" opacity="1.000000" stroke="none" 
	d="
M523.779907,426.995941 
	C524.701660,427.895172 524.991028,428.786346 523.953186,429.171875 
	C520.128418,430.592560 518.215576,433.802673 516.285950,437.713257 
	C513.598450,433.859711 511.875885,429.720306 506.039642,428.863617 
	C510.190399,425.579254 514.489929,424.273346 515.533447,419.136017 
	C518.315552,422.226593 519.591614,425.997620 523.779907,426.995941 
z"/>
<path fill="#000000" opacity="1.000000" stroke="none" 
	d="
M320.144135,387.903107 
	C318.734314,389.842773 317.385559,391.477997 315.965698,393.199432 
	C313.548157,391.093994 311.836090,389.602936 309.745789,387.782501 
	C311.666351,385.982056 313.405518,384.351685 314.882477,382.967072 
	C316.777496,384.616028 318.491333,386.107330 320.144135,387.903107 
z"/>
<path fill="#000000" opacity="1.000000" stroke="none" 
	d="
M471.868958,367.810333 
	C481.718842,367.786194 481.887665,367.620667 481.865234,358.361237 
	C481.810333,335.704041 481.760468,313.046814 481.693146,290.389648 
	C481.669769,282.531158 481.573639,282.490479 473.517700,282.085510 
	C471.564270,281.987305 469.507782,282.383179 467.657593,281.279297 
	C470.377686,278.665771 480.457214,276.982086 483.229706,278.740784 
	C486.072998,280.544403 485.872589,283.638092 485.935028,286.376221 
	C486.128540,294.869019 486.109833,303.367462 486.109253,311.863708 
	C486.108124,328.523254 486.083923,345.182831 486.028320,361.842285 
	C486.000885,370.053101 484.125641,372.122375 476.125824,372.072205 
	C452.650208,371.924957 429.151917,373.073761 405.707794,370.956207 
	C404.409058,370.838898 403.115448,370.665314 401.823303,369.923340 
	C424.939880,366.689117 448.195953,368.128693 471.868958,367.810333 
z"/>
<path fill="#000000" opacity="1.000000" stroke="none" 
	d="
M339.112152,294.563293 
	C339.649658,290.535034 340.555481,287.617279 344.936523,291.153778 
	C346.200409,292.174011 347.771515,291.920959 349.263702,291.755554 
	C368.739136,289.596924 388.211578,287.410217 407.691223,285.290436 
	C412.400879,284.777924 417.140442,284.338440 422.235931,285.419800 
	C421.305237,288.275665 419.305847,287.956512 417.645569,288.147186 
	C396.716949,290.550507 375.786041,292.933960 354.855988,295.324646 
	C351.856323,295.667267 349.386169,296.612030 348.731079,300.081207 
	C348.496887,301.321564 348.096283,302.733917 345.661346,302.953186 
	C346.504242,297.894104 341.306091,297.772644 339.112152,294.563293 
z"/>
<path fill="#000000" opacity="1.000000" stroke="none" 
	d="
M346.378418,331.911072 
	C349.310944,334.755493 349.070648,338.573395 348.685791,342.029663 
	C347.940063,348.726257 348.426636,355.297546 349.032074,361.947052 
	C349.412506,366.125214 351.110413,367.749786 355.277100,367.842468 
	C367.396179,368.112061 379.508972,368.663208 391.627411,369.417908 
	C378.137817,369.999268 364.711517,371.726990 351.185425,371.225128 
	C348.024139,371.107819 345.131897,369.613342 345.141968,366.411774 
	C345.177917,354.965820 343.826935,343.458771 346.378418,331.911072 
z"/>
<path fill="#000000" opacity="1.000000" stroke="none" 
	d="
M482.693787,186.363434 
	C491.349640,183.506836 497.397064,186.279480 499.617188,193.793045 
	C501.937744,201.646500 497.488129,210.058807 489.979156,212.014450 
	C483.121765,213.800385 475.729462,208.700394 474.160431,201.101028 
	C473.032288,195.636932 475.939972,190.456833 482.693787,186.363434 
z"/>
<path fill="#000000" opacity="1.000000" stroke="none" 
	d="
M454.799622,184.468994 
	C446.596527,178.441605 445.861938,168.882217 452.823792,163.038208 
	C457.929718,158.752121 464.068329,158.513031 468.722076,162.418991 
	C473.825836,166.702667 474.602753,173.272537 470.866943,179.497162 
	C468.086823,184.129364 460.682922,188.604324 454.799622,184.468994 
z"/>
<path fill="#000000" opacity="1.000000" stroke="none" 
	d="
M452.905396,217.898697 
	C460.152710,213.119370 464.277039,213.034302 468.956116,217.313889 
	C473.479645,221.451202 474.583893,228.314728 471.611298,233.816956 
	C468.551697,239.480118 462.495575,241.971298 456.873535,239.879318 
	C451.185669,237.762848 447.729889,230.966629 449.218262,224.746765 
	C449.808777,222.279007 450.951599,220.072693 452.905396,217.898697 
z"/>
<path fill="#000000" opacity="1.000000" stroke="none" 
	d="
M437.428741,214.008987 
	C429.625641,214.455521 424.596405,211.117386 423.111298,204.868622 
	C421.596954,198.496964 425.348480,190.972931 431.425781,188.477448 
	C435.545471,186.785797 439.259491,187.857330 442.434845,190.767853 
	C446.525421,194.517181 448.514740,199.080933 446.762665,204.610611 
	C445.339417,209.102478 442.453186,212.394501 437.428741,214.008987 
z"/>
<path fill="#000000" opacity="1.000000" stroke="none" 
	d="
M489.940796,227.912964 
	C488.549652,229.024704 487.690460,230.459579 485.657928,230.108902 
	C484.349731,228.092224 484.013306,225.734680 483.598358,223.033249 
	C486.508820,222.676834 489.057617,222.462433 491.009705,224.197952 
	C492.240112,225.291855 491.028229,226.626297 489.940796,227.912964 
z"/>
<path fill="#000000" opacity="1.000000" stroke="none" 
	d="
M431.700623,226.228333 
	C433.827179,224.648682 435.768372,224.622864 437.067627,226.682831 
	C438.346436,228.710373 437.655396,230.473190 435.485992,231.689194 
	C433.032990,230.810104 431.720764,229.110580 431.700623,226.228333 
z"/>
<path fill="#000000" opacity="1.000000" stroke="none" 
	d="
M370.717957,229.425537 
	C365.342865,224.098526 364.346588,218.923355 367.399048,213.487320 
	C370.847260,207.346329 377.666321,204.784317 383.031311,207.613998 
	C389.154114,210.843399 391.185242,218.912354 387.513275,225.419495 
	C383.937347,231.756439 377.769287,233.343262 370.717957,229.425537 
z"/>
<path fill="#000000" opacity="1.000000" stroke="none" 
	d="
M348.869995,184.613510 
	C355.757202,180.672546 362.405945,185.335281 364.365936,191.018250 
	C366.357635,196.793350 363.174072,204.344940 357.442871,206.868347 
	C352.896118,208.870255 347.880310,207.427002 344.667908,203.192474 
	C341.013245,198.374985 341.122040,192.233444 345.085938,187.595200 
	C346.033783,186.486115 347.367767,185.707031 348.869995,184.613510 
z"/>
<path fill="#000000" opacity="1.000000" stroke="none" 
	d="
M361.659027,236.345642 
	C366.786987,243.752594 366.268616,250.682144 360.538757,255.205276 
	C355.368073,259.286987 349.196289,258.524292 345.299713,253.322052 
	C341.375824,248.083389 341.788055,241.934387 346.390839,237.045898 
	C351.001923,232.148605 354.997803,231.890656 361.659027,236.345642 
z"/>
<path fill="#000000" opacity="1.000000" stroke="none" 
	d="
M329.156708,233.240387 
	C323.507263,232.613342 320.190918,229.544571 319.009918,224.628830 
	C317.795746,219.574936 319.538361,214.997772 323.375641,211.619720 
	C326.761353,208.639175 330.709442,208.151718 334.865753,210.571899 
	C339.190979,213.090424 341.890839,217.735565 341.208313,222.552948 
	C340.503937,227.524429 337.795502,231.108566 333.003754,232.863373 
	C331.953827,233.247879 330.721527,233.134384 329.156708,233.240387 
z"/>
<path fill="#000000" opacity="1.000000" stroke="none" 
	d="
M375.149017,246.428024 
	C375.027557,244.637589 374.546173,242.891113 376.730347,242.632034 
	C378.006836,242.480652 378.852783,243.395004 379.402924,244.481827 
	C380.015320,245.691544 379.628693,246.765427 378.696960,247.595337 
	C377.211212,248.918701 376.031525,248.559692 375.149017,246.428024 
z"/>
</svg>